<svg width="560" height="705" viewBox="0 0 560 705" fill="none" xmlns="http://www.w3.org/2000/svg">
<path d="M183.119 0H376.919L376.914 52.7789C376.914 52.9342 376.835 53.0119 376.676 53.0119H335.916C335.77 53.0119 335.696 53.0849 335.696 53.2309V442.266C335.696 442.327 335.721 442.385 335.763 442.428C335.806 442.47 335.865 442.494 335.925 442.494C361.576 442.516 387.227 442.518 412.877 442.499C413.295 442.499 413.709 442.546 414.12 442.639C414.139 442.643 414.158 442.643 414.177 442.639C414.196 442.634 414.214 442.626 414.229 442.614C414.244 442.602 414.257 442.586 414.265 442.569C414.274 442.551 414.278 442.532 414.279 442.513V147.278C414.279 147.242 414.264 147.207 414.239 147.182C414.214 147.157 414.179 147.142 414.143 147.142L377.615 147.156C377.553 147.156 377.493 147.131 377.45 147.087C377.406 147.042 377.381 146.982 377.381 146.919V94.2703C377.381 94.1739 377.42 94.0814 377.488 94.0133C377.556 93.9451 377.649 93.9068 377.745 93.9068H559.781C559.927 93.9068 560 93.9798 560 94.1258V146.686C560 146.809 559.951 146.928 559.863 147.015C559.776 147.103 559.657 147.152 559.533 147.152H519.002C518.855 147.152 518.782 147.225 518.782 147.371V489.103C518.782 489.258 518.722 489.407 518.614 489.518L451.886 557.564C451.777 557.676 451.645 557.732 451.489 557.732H335.93C335.774 557.732 335.696 557.809 335.696 557.965V636.492C335.696 636.648 335.774 636.725 335.93 636.725H376.681C376.836 636.725 376.914 636.803 376.914 636.958V704.897C376.914 704.925 376.903 704.951 376.884 704.97C376.865 704.989 376.839 705 376.811 705H183.263C183.216 705 183.171 704.982 183.138 704.949C183.105 704.917 183.086 704.873 183.086 704.828V636.898C183.086 636.875 183.091 636.851 183.099 636.83C183.108 636.809 183.121 636.789 183.138 636.773C183.154 636.756 183.174 636.743 183.195 636.734C183.217 636.725 183.24 636.721 183.263 636.721L224.187 636.725C224.249 636.725 224.308 636.701 224.352 636.657C224.396 636.613 224.42 636.554 224.42 636.492V557.965C224.42 557.903 224.396 557.844 224.352 557.8C224.308 557.756 224.249 557.732 224.187 557.732H108.59C108.429 557.732 108.292 557.674 108.179 557.559L41.5073 489.574C41.3921 489.456 41.3344 489.314 41.3344 489.15V147.38C41.3344 147.209 41.2488 147.122 41.0776 147.119L0 147.007V93.9161L182.413 93.9208C182.55 93.9208 182.619 93.9891 182.619 94.1258V146.7C182.619 147.001 182.468 147.152 182.166 147.152L145.899 147.147C145.852 147.147 145.807 147.166 145.773 147.199C145.74 147.232 145.721 147.277 145.721 147.324V442.401C145.721 442.428 145.732 442.454 145.752 442.474C145.771 442.493 145.797 442.504 145.824 442.504H224.187C224.343 442.504 224.42 442.426 224.42 442.271V53.2449C224.42 53.1831 224.396 53.1238 224.352 53.0801C224.308 53.0364 224.249 53.0119 224.187 53.0119H183.329C183.267 53.0119 183.207 52.9869 183.164 52.9423C183.12 52.8977 183.095 52.8373 183.095 52.7742L183.119 0Z" fill="#404040"/>
</svg>

